HIERARCHY
ROOT Hips
{
	OFFSET 0.000000 0.000000 0.000000
	CHANNELS 6 Xposition Yposition Zposition Zrotation Yrotation Xrotation 
	JOINT LeftUpLeg_virtual
	{
		OFFSET 0.000000 0.000000 0.000000
		CHANNELS 3 Zrotation Yrotation Xrotation
		JOINT LeftUpLeg
		{
			OFFSET 8.479694 -4.795517 -0.379053
			CHANNELS 3 Zrotation Yrotation Xrotation
			JOINT LeftLeg
			{
				OFFSET 0.485052 -32.551468 0.112863
				CHANNELS 3 Zrotation Yrotation Xrotation
				JOINT LeftFoot
				{
					OFFSET 0.438033 -32.635670 -3.012641
					CHANNELS 3 Zrotation Yrotation Xrotation
					JOINT LeftToeBase
					{
						OFFSET 0.970169 -13.225353 11.864223
						CHANNELS 3 Zrotation Yrotation Xrotation
						End Site
						{
							OFFSET 0.000000 0.000000 0.000000
						}
					}
				}
			}
		}
	}
	JOINT RightUpLeg_virtual
	{
		OFFSET 0.000000 0.000000 0.000000
		CHANNELS 3 Zrotation Yrotation Xrotation
		JOINT RightUpLeg
		{
			OFFSET -8.479694 -4.795517 -0.379053
			CHANNELS 3 Zrotation Yrotation Xrotation
			JOINT RightLeg
			{
				OFFSET -0.484100 -32.551483 0.112903
				CHANNELS 3 Zrotation Yrotation Xrotation
				JOINT RightFoot
				{
					OFFSET -0.438985 -32.635651 -3.012681
					CHANNELS 3 Zrotation Yrotation Xrotation
					JOINT RightToeBase
					{
						OFFSET -0.970169 -13.225354 11.864223
						CHANNELS 3 Zrotation Yrotation Xrotation
						End Site
						{
							OFFSET 0.000000 0.000000 0.000000
						}
					}
				}
			}
		}
	}
	JOINT Spine_virtual
	{
		OFFSET 0.000000 0.000000 0.000000
		CHANNELS 3 Zrotation Yrotation Xrotation
		JOINT Spine
		{
			OFFSET 0.000000 7.722015 1.166203
			CHANNELS 3 Zrotation Yrotation Xrotation
			JOINT Spine1
			{
				OFFSET 0.000000 12.024086 0.248766
				CHANNELS 3 Zrotation Yrotation Xrotation
				JOINT Spine2
				{
					OFFSET -0.000000 11.503036 -0.491240
					CHANNELS 3 Zrotation Yrotation Xrotation
					JOINT Neck_virtual
					{
						OFFSET 0.000000 0.000000 0.000000
						CHANNELS 3 Zrotation Yrotation Xrotation
						JOINT Neck
						{
							OFFSET 0.000000 18.430687 -3.123054
							CHANNELS 3 Zrotation Yrotation Xrotation
							JOINT Head
							{
								OFFSET -0.000000 9.051071 1.034021
								CHANNELS 3 Zrotation Yrotation Xrotation
								End Site
								{
									OFFSET 0.000000 0.000000 0.000000
								}
							}
						}
					}
					JOINT LeftShoulder_virtual
					{
						OFFSET 0.000000 0.000000 0.000000
						CHANNELS 3 Zrotation Yrotation Xrotation
						JOINT LeftShoulder
						{
							OFFSET 6.197824 13.665230 -4.064723
							CHANNELS 3 Zrotation Yrotation Xrotation
							JOINT LeftArm
							{
								OFFSET 7.778132 -0.187073 -1.709282
								CHANNELS 3 Zrotation Yrotation Xrotation
								JOINT LeftForeArm
								{
									OFFSET 21.954697 0.000000 -2.041093
									CHANNELS 3 Zrotation Yrotation Xrotation
									JOINT LeftHand
									{
										OFFSET 22.992908 0.000000 -0.870901
										CHANNELS 3 Zrotation Yrotation Xrotation
										End Site
										{
											OFFSET 0.000000 0.000000 0.000000
										}
									}
								}
							}
						}
					}
					JOINT RightShoulder_virtual
					{
						OFFSET 0.000000 0.000000 0.000000
						CHANNELS 3 Zrotation Yrotation Xrotation
						JOINT RightShoulder
						{
							OFFSET -6.197824 13.665230 -4.064723
							CHANNELS 3 Zrotation Yrotation Xrotation
							JOINT RightArm
							{
								OFFSET -7.778132 -0.187073 -1.709282
								CHANNELS 3 Zrotation Yrotation Xrotation
								JOINT RightForeArm
								{
									OFFSET -21.954697 0.000000 -2.041093
									CHANNELS 3 Zrotation Yrotation Xrotation
									JOINT RightHand
									{
										OFFSET -22.992908 0.000000 -0.870901
										CHANNELS 3 Zrotation Yrotation Xrotation
										End Site
										{
											OFFSET 0.000000 0.000000 0.000000
										}
									}
								}
							}
						}
					}
				}
			}
		}
	}
}
MOTION
Frames: 4
Frame Time: 0.033333
-2.769673 81.684448 -9.402746 -173.490548 -87.791673 174.473453 -4.673039 -2.942703 27.154496 4.217642 11.665120 -33.481184 7.226286 4.066367 25.686122 -0.993314 -6.416901 -6.542392 0.000000 0.000000 0.000000 -1.247892 -5.132262 26.909706 5.027886 0.059900 -38.661111 0.237722 2.603182 26.405305 10.146641 2.343406 -10.406271 0.000000 0.000000 0.000000 0.571183 -1.800921 25.622609 -1.915715 2.615054 3.992886 -0.113807 -1.756039 8.940939 0.066680 0.266104 0.098146 0.318207 -1.196820 8.634727 -0.048822 -4.077804 -9.671233 0.000000 0.000000 0.000000 1.179362 -0.207605 4.586100 -5.349960 -10.657375 7.647681 -32.946217 -30.192155 10.453937 -3.072861 -55.392178 9.587346 0.000000 0.000000 0.000000 -2.437425 1.301134 4.301154 21.922566 12.866513 11.353712 27.241344 26.375358 17.398471 -8.002556 54.769771 -4.278215 0.000000 0.000000 0.000000 
-3.124140 81.729424 -9.342926 -173.408845 -87.716465 174.430464 -4.404354 -2.781208 27.650768 3.725105 11.872305 -34.088733 7.175004 4.128090 26.030440 -1.288324 -6.201052 -6.035247 0.000000 0.000000 0.000000 -1.067181 -5.049625 27.417728 4.718884 0.248566 -38.806932 0.079512 2.303562 26.225620 10.257110 2.433690 -10.174700 0.000000 0.000000 0.000000 1.031699 -1.878771 26.342248 -2.094613 2.530058 4.257440 -0.082731 -1.741988 8.882824 0.081770 0.279570 0.128510 0.371179 -1.219801 8.783773 -0.049435 -4.271080 -9.845692 0.000000 0.000000 0.000000 1.243610 -0.275498 4.665476 -5.583976 -10.810741 7.785055 -33.039278 -30.214056 9.916891 -2.955967 -55.168271 9.714225 0.000000 0.000000 0.000000 -2.418740 1.330236 4.441600 21.591019 12.892123 11.333113 26.893115 26.491063 17.046661 -7.973829 54.673322 -4.328425 0.000000 0.000000 0.000000 
-3.588272 81.792068 -9.270867 -172.943941 -87.790696 174.029040 -4.125163 -2.562065 28.094404 3.257010 12.041588 -34.812945 7.131244 4.077129 26.348664 -1.647130 -6.019024 -5.395690 0.000000 0.000000 0.000000 -0.815934 -4.963522 27.821867 4.327532 0.366804 -38.823693 -0.159396 2.119879 25.906506 10.240254 2.328606 -9.944142 0.000000 0.000000 0.000000 1.500115 -1.840569 26.819583 -2.265324 2.472209 4.483162 -0.086234 -1.732605 8.967810 0.058592 0.313423 0.140173 0.403807 -1.244621 8.954124 -0.083160 -4.447760 -10.138356 0.000000 0.000000 0.000000 1.270069 -0.283126 4.819707 -5.809195 -11.009013 7.878090 -33.115025 -30.546734 9.458993 -2.795813 -54.598832 9.762170 0.000000 0.000000 0.000000 -2.407077 1.293069 4.611637 21.404092 13.010538 11.354641 26.524454 26.561701 16.626386 -7.982679 54.491318 -4.431573 0.000000 0.000000 0.000000 
-4.121354 81.855339 -9.179142 -172.139687 -88.144807 173.290273 -3.865899 -2.311889 28.551550 2.898561 12.056913 -35.719407 7.147142 3.892666 26.966787 -1.986220 -5.860146 -4.696605 0.000000 0.000000 0.000000 -0.450659 -4.878294 28.114032 3.921942 0.282314 -38.739778 -0.352256 2.102528 25.581401 10.068616 2.054580 -9.856729 0.000000 0.000000 0.000000 1.928577 -1.698750 27.114295 -2.422146 2.425538 4.585892 -0.115721 -1.771364 9.068267 0.045806 0.297492 0.141759 0.323505 -1.393605 9.248334 -0.234383 -4.526967 -10.341354 0.000000 0.000000 0.000000 1.253681 -0.372894 5.023018 -5.998013 -11.213848 7.928225 -33.314992 -30.956729 9.387956 -2.336352 -53.747845 9.487518 0.000000 0.000000 0.000000 -2.445229 1.260057 4.831785 21.400980 13.224137 11.427430 26.395232 26.685973 16.263451 -7.908944 54.155136 -4.460627 0.000000 0.000000 0.000000 
